Coordinates
nRows=12
nColumns=24

# SIMM Motion File Header:
name Coordinates
datacolumns 24
datarows 12
otherdata 1
range 0.28499999999999998000 0.29599999999999999000

Units are S.I. units (second, meters, Newtons, ...)
Angles are in degrees.

endheader
time	pelvis_tx	pelvis_ty	pelvis_tz	pelvis_tilt	pelvis_list	pelvis_rotation	hip_flexion_r	hip_adduction_r	hip_rotation_r	knee_angle_r	ankle_angle_r	subtalar_angle_r	mtp_angle_r	hip_flexion_l	hip_adduction_l	hip_rotation_l	knee_angle_l	ankle_angle_l	subtalar_angle_l	mtp_angle_l	lumbar_extension	lumbar_bending	lumbar_rotation
      0.28499999999999998000	      1.46070253931193110000	      0.88940728311100714000	     -0.27011499563783037000	      3.06310139083699880000	      2.28792074365337420000	     -6.03157104008873460000	     -3.34269416894667470000	     -8.16892846980456790000	     -8.72808738462540210000	    -47.57593244922643500000	      1.59216387634307340000	      0.00000000000000000000	      0.00000000000000000000	     10.02367057346798300000	      5.22511650342478350000	      5.21619503027095190000	    -18.00062286443659000000	      5.59449669997973850000	      0.00000000000000000000	      0.00000000000000000000	    -13.32853219170482200000	     -2.24868825997123610000	      6.17470646283675780000
      0.28599999999999998000	      1.46135028125820580000	      0.88946757048115832000	     -0.27023685348105725000	      3.07556457243250670000	      2.28277286340838130000	     -6.02376535564009340000	     -3.24672112867490140000	     -8.18537173516672570000	     -8.73451314173562030000	    -47.74390533711737600000	      1.66992682639225820000	     -0.00000000000000000031	     -0.00000000000000000036	      9.97385435933751200000	      5.23121241719146730000	      5.18070093189133640000	    -18.01704611522937000000	      5.64063813722340960000	      0.00000000000000000223	     -0.00000000000000001312	    -13.33419374360095800000	     -2.23212149733460090000	      6.15091413992925240000
      0.28699999999999998000	      1.46199729534293450000	      0.88952781955519689000	     -0.27035830761138185000	      3.08804647812087470000	      2.27757061217819160000	     -6.01589087241667640000	     -3.15080086466848820000	     -8.20173396094885910000	     -8.74113264809543720000	    -47.91116598374316700000	      1.74752555514067230000	     -0.00000000000000000186	     -0.00000000000000000136	      9.92399523378948170000	      5.23721286709080310000	      5.14518763406653520000	    -18.03331641218852600000	      5.68649633711354950000	      0.00000000000000001321	     -0.00000000000000007059	    -13.33983965726063700000	     -2.21551091674592950000	      6.12721669220666600000
      0.28799999999999998000	      1.46264358784161330000	      0.88958803738582271000	     -0.27047936263916583000	      3.10055126525753310000	      2.27230501910690430000	     -6.00794004189361970000	     -3.05494847429995260000	     -8.21800493317254600000	     -8.74796205234442150000	    -48.07766002617970000000	      1.82494921672847220000	     -0.00000000000000000403	     -0.00000000000000000216	      9.87408097857257520000	      5.24311036229432050000	      5.10966571582009440000	    -18.04943309035237700000	      5.73225403859548340000	      0.00000000000000002228	     -0.00000000000000015863	    -13.34547445467784500000	     -2.19884772615154310000	      6.10361856713813200000
      0.28899999999999998000	      1.46328915803475450000	      0.88964823185070974000	     -0.27060001895355973000	      3.11308022903966730000	      2.26697106070986680000	     -5.99990704006454760000	     -2.95917346765734910000	     -8.23417835277106040000	     -8.75501662566756520000	    -48.24332825499923400000	      1.90218381611765990000	     -0.00000000000000000601	     -0.00000000000000000408	      9.82410313144196760000	      5.24889810142844040000	      5.07413486197157320000	    -18.06538564135172500000	      5.77790501404871120000	      0.00000000000000002965	     -0.00000000000000026801	    -13.35109982555721000000	     -2.18212848083470100000	      6.08012689965437400000
      0.28999999999999998000	      1.46393400510234040000	      0.88970841063759554000	     -0.27072027700982293000	      3.12563458103310190000	      2.26156385591134960000	     -5.99178614132584550000	     -2.86348510686069830000	     -8.25024804327432550000	     -8.76231119815870760000	    -48.40811215162057100000	      1.97921547793921790000	     -0.00000000000000000770	     -0.00000000000000000623	      9.77405348786061090000	      5.25456940128533030000	      5.03859474756867610000	    -18.08116364035441100000	      5.82344139319169420000	      0.00000000000000003820	     -0.00000000000000040874	    -13.35671736028760200000	     -2.16534985691450150000	      6.05674870476676390000
      0.29099999999999998000	      1.46457812820478560000	      0.88976858121746094000	     -0.27084013737406470000	      3.13821547418794070000	      2.25607863463674720000	     -5.98357170621465690000	     -2.76789245339513770000	     -8.26620792123185490000	     -8.76986014224450900000	    -48.57195399767154200000	      2.05603047929059320000	     -0.00000000000000001012	     -0.00000000000000000738	      9.72392407637167900000	      5.26011769821101890000	      5.00304515722240590000	    -18.09675685178135400000	      5.86885542225031910000	      0.00000000000000005296	     -0.00000000000000052761	    -13.36232857325359500000	     -2.14850860328023700000	      6.03349083594101550000
      0.29199999999999998000	      1.46522152649184870000	      0.88982875083090140000	     -0.27095960072333486000	      3.15082399884571180000	      2.25051074490989440000	     -5.97525818725381350000	     -2.67240435982424750000	     -8.28205200255012210000	     -8.77767734205192520000	    -48.73479693019110900000	      2.13261525976379000000	     -0.00000000000000001308	     -0.00000000000000000890	      9.67370716941903730000	      5.26553655718079040000	      4.96748599306229900000	    -18.11215524382417300000	      5.91413947832888720000	      0.00000000000000006952	     -0.00000000000000067512	    -13.36793489998915900000	     -2.13160154685643910000	      6.01035997228465750000
      0.29299999999999998000	      1.46586419910885660000	      0.88988892647663609000	     -0.27107866784603518000	      3.16346117866932100000	      2.24485566180071270000	     -5.96684013405579880000	     -2.57702946106286700000	     -8.29777441081111180000	     -8.78577616433042690000	    -48.89658499505552000000	      2.20895643109465790000	     -0.00000000000000001612	     -0.00000000000000000997	      9.62339529596758680000	      5.27081968170115010000	      4.93191727689762160000	    -18.12734900307704700000	      5.95928597373956850000	      0.00000000000000009710	     -0.00000000000000083306	    -13.37353769441371300000	     -2.11462559999135410000	      5.98736260520452750000
      0.29399999999999998000	      1.46650614520133260000	      0.88994911489944406000	     -0.27119733964273407000	      3.17612796689625790000	      2.23910899350631890000	     -5.95831219899683440000	     -2.48177616613421930000	     -8.31336938268448660000	     -8.79416943077136890000	    -49.05726319488846300000	      2.28504078624698080000	     -0.00000000000000001914	     -0.00000000000000001197	      9.57298125104049190000	      5.27596092169890700000	      4.89633915625320790000	    -18.14232854507798000000	      6.00428737329062920000	      0.00000000000000012246	     -0.00000000000000098670	    -13.37913822642114100000	     -2.09757776465547390000	      5.96450502841203440000
      0.29499999999999998000	      1.46714736391742840000	      0.89000932257803111000	     -0.27131561712755270000	      3.18882524288599360000	      2.23326648501405330000	     -5.94966914327436050000	     -2.38665265043509000000	     -8.32883127092943450000	     -8.80286939187842070000	    -49.21677753186803300000	      2.36085530796721740000	     -0.00000000000000002223	     -0.00000000000000001442	      9.52245810261884170000	      5.28095427991935210000	      4.86075191446588750000	    -18.15708452202271400000	      6.04913630784325300000	      0.00000000000000013807	     -0.00000000000000106124	    -13.38473767984496400000	     -2.08045513392020220000	      5.94179333083972590000
      0.29599999999999999000	      1.46778785440818990000	      0.89006955571510160000	     -0.27143350143030126000	      3.20155380887334800000	      2.22732402333363440000	     -5.94090584198342060000	     -2.29166684816808800000	     -8.34415454915936120000	     -8.81188770259130470000	    -49.37507504950802000000	      2.43638717712371470000	     -0.00000000000000002502	     -0.00000000000000001712	      9.47181920006172010000	      5.28579391916153880000	      4.82515597613258240000	    -18.17160783168299400000	      6.09382559024426040000	      0.00000000000000013078	     -0.00000000000000114944	    -13.39033715076781500000	     -2.06325489513094240000	      5.91923338859075530000
